# xmcd
#
# Track frame offsets:
#	150
#	11479
#	33925
#	47041
#
# Disc length: 899 seconds
#
# Revision: 0
# Processed by: cddbd v1.5.2PL0 Copyright (c) Steve Scherf et al.
# Submitted via: dBpowerAMP V4.0
#
DISCID=25038104
DTITLE=The Wedding Present - The Thing I Like Best About Him Is His Girlfriend EP
DYEAR=2008
DGENRE=Rock
TTITLE0=The Thing I Like Best About Him Is His Girlfriend (Jet Age Remix)
TTITLE1=The Thing I Like Best About Him Is His Girlfriend (GR's Man-Made Island Edition)
TTITLE2=The Thing I Like Best About Him Is His Girlfriend (Acoustic Version)
TTITLE3=The Thing I Like Best About Him Is His Girlfriend (Santa Monica and La Brea Version)
EXTD=
EXTT0=
EXTT1=
EXTT2=
EXTT3=
PLAYORDER=
